<?xml version="1.0" encoding="utf-8"?>
<!-- Generator: Adobe Illustrator 16.0.0, SVG Export Plug-In . SVG Version: 6.00 Build 0)  -->
<!DOCTYPE svg PUBLIC "-//W3C//DTD SVG 1.1//EN" "http://www.w3.org/Graphics/SVG/1.1/DTD/svg11.dtd">
<svg version="1.1" id="Camada_1" xmlns="http://www.w3.org/2000/svg" xmlns:xlink="http://www.w3.org/1999/xlink" x="0px" y="0px"
	 width="510.236px" height="510.236px" viewBox="0 0 510.236 510.236" enable-background="new 0 0 510.236 510.236"
	 xml:space="preserve">
<g>
	<g>
		<polygon fill-rule="evenodd" clip-rule="evenodd" fill="#007CC4" points="32.688,228.53 49.03,238.109 65.373,247.689 
			65.373,266.848 65.373,286.006 49.03,295.566 32.688,305.145 16.324,295.566 0,286.006 0,266.848 0,247.689 16.324,238.109 		"/>
		<polygon fill-rule="evenodd" clip-rule="evenodd" fill="#007CC4" points="144.02,285.968 160.383,295.548 176.746,305.125 
			176.746,324.303 176.746,343.462 160.383,353.062 144.02,362.64 127.657,353.062 111.295,343.462 111.295,324.303 
			111.295,305.125 127.657,295.548 		"/>
		<polygon fill-rule="evenodd" clip-rule="evenodd" fill="#007CC4" points="143.335,147.597 163.002,159.092 182.65,170.586 
			182.65,193.557 182.65,216.527 163.002,228.022 143.335,239.518 123.708,228.022 104.062,216.527 104.062,193.557 
			104.062,170.586 123.708,159.092 		"/>
		<polygon fill-rule="evenodd" clip-rule="evenodd" fill="#007CC4" points="170.255,232.401 183.393,240.064 196.49,247.709 
			196.49,263.017 196.49,278.305 183.393,285.948 170.255,293.593 157.138,285.948 144.02,278.305 144.02,263.017 144.02,247.709 
			157.138,240.064 		"/>
		<polygon fill-rule="evenodd" clip-rule="evenodd" fill="#007CC4" points="85.137,297.56 94.99,303.287 104.824,309.035 
			104.824,320.492 104.824,331.966 94.99,337.694 85.137,343.422 75.284,337.694 65.433,331.966 65.433,320.492 65.433,309.035 
			75.284,303.287 		"/>
		<polygon fill-rule="evenodd" clip-rule="evenodd" fill="#007CC4" points="65.433,178.759 78.511,186.402 91.589,194.065 
			91.589,209.373 91.589,224.66 78.511,232.304 65.433,239.967 52.353,232.304 39.275,224.66 39.275,209.373 39.275,194.065 
			52.353,186.402 		"/>
	</g>
	<g>
		<path fill-rule="evenodd" clip-rule="evenodd" fill="#221E1F" d="M510.236,248.334h-35.734v17.36H489.3v20.546
			c-0.881,0.392-2.248,0.686-4.086,0.919c-1.859,0.234-4.008,0.391-6.451,0.391c-4.457,0-8.545-0.724-12.238-2.13
			c-3.695-1.447-6.902-3.519-9.58-6.275c-2.738-2.738-4.809-6.119-6.254-10.088c-1.488-3.967-2.23-8.465-2.25-13.585
			c0.02-5.319,0.803-10.011,2.426-13.98c1.604-4.007,3.85-7.35,6.723-9.989c2.895-2.658,6.275-4.652,10.146-5.962
			c3.832-1.31,8.057-1.994,12.592-1.994c3.498,0,6.605,0.215,9.285,0.567c2.658,0.351,5.082,0.859,7.176,1.485
			c2.111,0.645,4.025,1.349,5.746,2.229l4.574-18.122c-1.584-0.703-3.635-1.369-6.234-2.072c-2.602-0.685-5.592-1.271-9.035-1.74
			c-3.42-0.43-7.213-0.703-11.357-0.703c-7.898,0-15.189,1.134-21.814,3.421c-6.648,2.307-12.436,5.63-17.361,10.028
			c-4.906,4.38-8.719,9.756-11.455,16.109c-2.719,6.393-4.125,13.685-4.203,21.896c0,4.809,0.525,9.423,1.604,13.761
			c1.053,4.36,2.541,8.37,4.574,12.102c1.992,3.676,4.455,6.98,7.35,9.872c4.398,4.282,9.812,7.568,16.246,9.775
			c6.449,2.21,14.035,3.323,22.795,3.323c4.242,0,8.385-0.332,12.432-0.918s7.742-1.291,11.123-2.131
			c3.383-0.861,6.197-1.682,8.465-2.481V248.334z M344.832,304.461h21.621v-39.509h34.463v-18.064h-34.463v-22.481h36.889v-18.181
			h-58.51V304.461z M234.357,206.226v54.798c0.02,10.358,1.565,18.903,4.575,25.509c3.01,6.688,7.35,11.613,13.02,14.8
			c5.708,3.167,12.628,4.75,20.722,4.75c8.387,0,15.543-1.621,21.523-4.866c5.965-3.265,10.52-8.192,13.703-14.818
			c3.148-6.607,4.752-14.976,4.793-25.062v-55.11H291.05v56.399c-0.039,8.737-1.545,15.19-4.574,19.393
			c-3.012,4.183-7.391,6.294-13.078,6.256c-5.533,0-9.795-2.111-12.824-6.432c-2.992-4.282-4.496-10.674-4.574-19.217v-56.399
			H234.357z"/>
	</g>
</g>
</svg>
