<?xml version="1.0" encoding="utf-8"?>
<!-- Generator: Adobe Illustrator 16.0.0, SVG Export Plug-In . SVG Version: 6.00 Build 0)  -->
<!DOCTYPE svg PUBLIC "-//W3C//DTD SVG 1.1//EN" "http://www.w3.org/Graphics/SVG/1.1/DTD/svg11.dtd">
<svg version="1.1" id="Camada_1" xmlns="http://www.w3.org/2000/svg" xmlns:xlink="http://www.w3.org/1999/xlink" x="0px" y="0px"
	 width="510.236px" height="510.236px" viewBox="0 0 510.236 510.236" enable-background="new 0 0 510.236 510.236"
	 xml:space="preserve">
<g>
	<path fill="#48B12A" d="M76.628,240.233c0-13.632,9.624-20.449,28.871-20.449c5.783,0,10.933,0.422,15.448,1.266v-4.368
		c0-5.953-5.761-8.928-17.285-8.928c-6.784,0-13.528,0.922-20.24,2.765c-0.472,0.128-1.414-0.193-1.414-1.121
		c0-3.233,0-10.517,0-10.903c0-0.794,0.671-1.065,1.006-1.158c6.845-1.92,13.727-2.879,20.647-2.879
		c22.709,0,34.064,7.304,34.064,21.907c0,0,0,42.874,0,43.436c0,0.566-0.452,1.139-1.138,1.139c-2.137,0-6.547,0-6.701,0
		c-0.62,0-1.034-0.254-1.034-0.254l-6.828-4.432c-5.786,3.125-11.946,4.686-18.489,4.686
		C85.597,260.938,76.628,254.037,76.628,240.233z M105.5,232.447c-8.062,0-12.093,2.532-12.093,7.598
		c0,5.063,3.375,7.597,10.13,7.597c6.838,0,12.642-1.731,17.411-5.191v-8.738C116.727,232.868,111.58,232.447,105.5,232.447z"/>
	<path fill="#007B34" d="M289.241,171.536c0,0.594,0,11.7,0,12.254c0,0.653-0.461,1.17-1.139,1.17c-0.673,0-24.819,0-24.819,0
		s0,74.277,0,74.84c0,0.566-0.488,1.139-1.18,1.139s-13.765,0-14.403,0c-0.735,0-1.196-0.535-1.196-1.148c0-0.615,0-74.83,0-74.83
		s-24.192,0-24.826,0c-0.629,0-1.136-0.486-1.136-1.17c0-0.685,0-11.623,0-12.254c0-0.63,0.534-1.139,1.141-1.139
		c0.604,0,65.876,0,66.42,0C288.792,170.397,289.241,170.945,289.241,171.536z"/>
	<path fill="#007B34" d="M315.517,171.536c0,0.577,0,77.928,0,88.264c0,0.742-0.508,1.139-1.153,1.139c-0.645,0-13.812,0-14.477,0
		c-0.663,0-1.15-0.396-1.15-1.139c0-10.336,0-87.684,0-88.264c0-0.621,0.551-1.139,1.15-1.139c0.602,0,13.812,0,14.477,0
		C315.033,170.397,315.517,170.919,315.517,171.536z"/>
	<path fill="#007B34" d="M334.511,259.8c0-0.605,0-77.922,0-88.264c0-0.739,0.517-1.139,1.136-1.139c0.621,0,15.072,0,15.516,0
		c0.441,0,0.935,0.39,1.082,0.721c0.148,0.328,30.387,67.977,30.387,67.977s29.68-67.788,29.802-68.072
		c0.124-0.284,0.675-0.626,1.021-0.626s14.229,0,14.893,0c0.666,0,1.139,0.522,1.139,1.139c0,0.577,0,87.727,0,88.264
		c0,0.664-0.491,1.139-1.139,1.139s-12.686,0-13.232,0s-1.142-0.424-1.142-1.139c0-0.559,0-61.922,0-61.922
		s-24.109,61.883-24.266,62.286s-0.488,0.775-1.086,0.775c-0.468,0-12.431,0-12.755,0c-0.473,0-0.883-0.283-1.065-0.74
		c-0.18-0.459-24.777-62.321-24.777-62.321s0,61.36,0,61.922c0,0.566-0.525,1.139-1.143,1.139c-0.62,0-12.687,0-13.233,0
		C335.102,260.938,334.511,260.45,334.511,259.8z"/>
	<path fill="#007B34" d="M507.932,171.536c0,0.543,0,11.5,0,12.116c0,0.618-0.475,1.182-1.142,1.182c-0.666,0-41.66,0-41.66,0
		v22.793c0,0,38.791,0,39.482,0c0.693,0,1.166,0.573,1.166,1.158c0,0.585,0,12.125,0,12.685c0,0.562-0.521,1.162-1.166,1.162
		c-0.646,0-39.672,0-39.672,0v23.744c0,0,42.141,0,42.737,0c0.602,0,1.141,0.46,1.141,1.158c0,0.59,0,11.676,0,12.266
		c0,0.715-0.548,1.139-1.141,1.139c-0.54,0-57.473,0-58.059,0c-0.587,0-1.141-0.396-1.141-1.139c0-10.335,0-87.684,0-88.264
		c0-0.745,0.584-1.139,1.139-1.139c0.556,0,56.649,0,57.173,0C507.535,170.397,507.932,170.993,507.932,171.536z"/>
	<path fill="#48B12A" d="M64.409,246.376c-0.583,0-32.762,0-33.287,0c-0.622,0-1.129-0.469-1.129-1.157s0.012-73.473,0.012-73.473
		c0-0.745-0.602-1.349-1.346-1.349H14.567c-0.745,0-1.35,0.604-1.35,1.349l-0.001,74.582h8.32c0.745,0,1.347,0.604,1.347,1.349
		v13.262c14.709,0,41.072,0,41.527,0c0.632,0,1.136-0.465,1.136-1.139s0-11.647,0-12.281
		C65.546,246.786,65.063,246.376,64.409,246.376z"/>
	<path fill="#48B12A" d="M18.275,251.161c0,0.744-0.602,1.348-1.347,1.348H2.766c-0.745,0-1.349-0.604-1.349-1.348V237
		c0-0.745,0.604-1.349,1.349-1.349h14.163c0.745,0,1.347,0.604,1.347,1.349V251.161z"/>
	<path fill="#48B12A" d="M185.845,194.457c-5.317,0-10.489,1.057-15.511,3.167l0.011-25.878c0-0.745-0.602-1.349-1.348-1.349h-6.899
		v19.641c0,1.008-0.813,1.825-1.823,1.825h-6.719c0,25.172,0,65.056,0,65.388c0,0.686,0.655,1.078,0.984,1.133
		c10.139,1.701,19.625,2.555,28.456,2.555c6.481,0,11.999-0.99,16.616-2.9v-16.739c0-1.009,0.816-1.826,1.823-1.826h13.751
		c1.016-3.858,1.558-8.204,1.558-13.105C216.745,205.095,206.447,194.457,185.845,194.457z M183.693,247.389
		c-5.064,0-9.517-0.61-13.359-1.837v-33.745c4.644-2.279,9.793-3.419,15.449-3.419c9.582,0,14.372,5.847,14.372,17.537
		C200.155,240.233,194.667,247.389,183.693,247.389z"/>
	<path fill="#48B12A" d="M157.493,185.907c0,0.743-0.604,1.347-1.35,1.347h-14.161c-0.745,0-1.348-0.604-1.348-1.347v-14.162
		c0-0.745,0.604-1.349,1.348-1.349h14.161c0.746,0,1.35,0.604,1.35,1.349V185.907z"/>
	<path fill="#48B12A" d="M221.078,259.587c0,0.748-0.604,1.352-1.348,1.352h-14.161c-0.745,0-1.349-0.604-1.349-1.352V245.43
		c0-0.746,0.604-1.349,1.349-1.349h14.161c0.744,0,1.348,0.603,1.348,1.349V259.587z"/>
	<g>
		<path fill="#808184" d="M4.075,292.995h1.854v14.719h9.25v1.715H4.075V292.995z"/>
		<path fill="#808184" d="M22.502,309.687c-0.563,0-1.118-0.078-1.667-0.234c-0.549-0.158-1.033-0.396-1.456-0.717
			s-0.764-0.719-1.021-1.188s-0.388-1.014-0.388-1.641v-0.047c0-0.658,0.124-1.232,0.375-1.727s0.607-0.904,1.069-1.232
			c0.461-0.33,1.01-0.578,1.643-0.752c0.633-0.17,1.333-0.258,2.102-0.258c0.781,0,1.459,0.045,2.03,0.143
			c0.572,0.092,1.129,0.217,1.678,0.375v-0.375c0-1.07-0.312-1.885-0.938-2.438c-0.627-0.551-1.512-0.826-2.653-0.826
			c-0.72,0-1.374,0.076-1.96,0.232c-0.588,0.158-1.163,0.369-1.728,0.635l-0.538-1.486c0.671-0.318,1.353-0.572,2.042-0.764
			c0.688-0.189,1.479-0.285,2.371-0.285c1.72,0,3.027,0.445,3.92,1.336c0.845,0.848,1.268,2.039,1.268,3.572v7.418h-1.784v-1.807
			c-0.423,0.549-0.99,1.027-1.702,1.441C24.455,309.479,23.566,309.687,22.502,309.687z M22.868,308.206
			c0.561,0,1.084-0.078,1.568-0.232c0.483-0.156,0.907-0.377,1.274-0.666c0.368-0.291,0.655-0.631,0.866-1.027
			s0.316-0.84,0.316-1.32v-1.123c-0.452-0.125-0.967-0.24-1.543-0.352c-0.579-0.107-1.241-0.16-1.989-0.16
			c-1.124,0-1.993,0.221-2.609,0.664c-0.617,0.441-0.925,1.033-0.925,1.766v0.045c0,0.375,0.083,0.713,0.247,1.016
			c0.163,0.305,0.386,0.557,0.666,0.76c0.283,0.203,0.605,0.359,0.972,0.469S22.462,308.206,22.868,308.206z"/>
		<path fill="#808184" d="M39.524,309.687c-0.562,0-1.08-0.072-1.549-0.213c-0.47-0.143-0.892-0.328-1.269-0.562
			c-0.375-0.234-0.716-0.508-1.021-0.822c-0.304-0.311-0.574-0.641-0.809-0.986v2.326h-1.809v-17.141h1.809v7.443
			c0.25-0.359,0.527-0.705,0.833-1.035c0.304-0.326,0.646-0.613,1.021-0.854c0.375-0.242,0.794-0.439,1.256-0.588
			s0.975-0.223,1.537-0.223c0.719,0,1.429,0.141,2.124,0.422c0.697,0.283,1.32,0.695,1.868,1.234
			c0.546,0.539,0.984,1.197,1.315,1.973c0.329,0.773,0.492,1.662,0.492,2.664v0.047c0,0.986-0.164,1.871-0.492,2.65
			c-0.331,0.783-0.764,1.445-1.304,1.986c-0.54,0.539-1.159,0.955-1.854,1.242C40.976,309.542,40.259,309.687,39.524,309.687z
			 M39.194,308.065c0.58,0,1.132-0.105,1.656-0.314c0.525-0.213,0.979-0.516,1.361-0.918c0.384-0.398,0.689-0.891,0.915-1.465
			c0.229-0.582,0.341-1.238,0.341-1.975v-0.045c0-0.723-0.113-1.369-0.341-1.951c-0.226-0.578-0.536-1.072-0.926-1.479
			c-0.391-0.406-0.845-0.719-1.362-0.939c-0.515-0.219-1.064-0.328-1.644-0.328c-0.563,0-1.106,0.115-1.63,0.34
			c-0.524,0.227-0.994,0.549-1.409,0.965c-0.416,0.414-0.743,0.906-0.988,1.479c-0.241,0.57-0.363,1.201-0.363,1.891v0.047
			c0,0.705,0.122,1.346,0.363,1.924c0.245,0.578,0.572,1.072,0.988,1.479c0.415,0.408,0.884,0.725,1.409,0.951
			C38.088,307.954,38.631,308.065,39.194,308.065z"/>
		<path fill="#808184" d="M54.783,309.71c-0.907,0-1.746-0.168-2.512-0.504c-0.767-0.338-1.432-0.791-1.994-1.363
			c-0.564-0.57-1.002-1.234-1.316-1.996c-0.312-0.758-0.469-1.566-0.469-2.43v-0.045c0-0.863,0.157-1.674,0.469-2.443
			c0.314-0.766,0.752-1.439,1.316-2.018c0.562-0.578,1.232-1.037,2.006-1.373c0.775-0.338,1.623-0.506,2.548-0.506
			c0.907,0,1.747,0.168,2.521,0.506c0.777,0.336,1.446,0.791,2.008,1.361c0.563,0.57,1.001,1.236,1.315,1.996
			c0.312,0.76,0.472,1.568,0.472,2.43v0.047c0,0.861-0.162,1.672-0.482,2.439c-0.323,0.768-0.764,1.441-1.328,2.02
			s-1.235,1.037-2.018,1.375C56.536,309.542,55.689,309.71,54.783,309.71z M54.831,308.089c0.656,0,1.259-0.125,1.808-0.375
			c0.547-0.248,1.016-0.588,1.408-1.01c0.391-0.422,0.697-0.916,0.916-1.48c0.219-0.561,0.328-1.164,0.328-1.807v-0.045
			c0-0.66-0.114-1.273-0.34-1.844c-0.228-0.572-0.544-1.07-0.951-1.504c-0.408-0.428-0.885-0.77-1.433-1.021
			c-0.546-0.248-1.141-0.375-1.784-0.375c-0.657,0-1.259,0.127-1.808,0.375c-0.548,0.252-1.013,0.588-1.398,1.012
			c-0.383,0.42-0.685,0.918-0.904,1.49c-0.218,0.57-0.327,1.176-0.327,1.82v0.047c0,0.654,0.113,1.271,0.34,1.842
			c0.226,0.57,0.54,1.068,0.939,1.49s0.874,0.762,1.422,1.01C53.593,307.964,54.188,308.089,54.831,308.089z"/>
		<path fill="#808184" d="M64.996,297.292h1.807v3.168c0.219-0.5,0.494-0.961,0.823-1.385c0.328-0.424,0.703-0.789,1.126-1.092
			c0.423-0.305,0.884-0.535,1.386-0.691c0.5-0.158,1.041-0.227,1.619-0.213v1.947h-0.141c-0.658,0-1.28,0.117-1.868,0.354
			c-0.587,0.234-1.1,0.588-1.537,1.055c-0.439,0.471-0.784,1.057-1.033,1.75c-0.251,0.699-0.377,1.5-0.377,2.408v4.836h-1.807
			V297.292z"/>
		<path fill="#808184" d="M78.706,309.687c-0.563,0-1.119-0.078-1.667-0.234c-0.549-0.158-1.033-0.396-1.456-0.717
			s-0.764-0.719-1.021-1.188c-0.259-0.469-0.389-1.014-0.389-1.641v-0.047c0-0.658,0.125-1.232,0.377-1.727
			c0.25-0.494,0.606-0.904,1.068-1.232c0.461-0.33,1.009-0.578,1.644-0.752c0.632-0.17,1.332-0.258,2.101-0.258
			c0.783,0,1.459,0.045,2.03,0.143c0.572,0.092,1.13,0.217,1.678,0.375v-0.375c0-1.07-0.312-1.885-0.938-2.438
			c-0.627-0.551-1.511-0.826-2.653-0.826c-0.72,0-1.374,0.076-1.96,0.232c-0.587,0.158-1.163,0.369-1.728,0.635l-0.538-1.486
			c0.672-0.318,1.353-0.572,2.043-0.764c0.687-0.189,1.479-0.285,2.37-0.285c1.72,0,3.028,0.445,3.92,1.336
			c0.845,0.848,1.268,2.039,1.268,3.572v7.418h-1.784v-1.807c-0.422,0.549-0.989,1.027-1.702,1.441
			C80.66,309.479,79.77,309.687,78.706,309.687z M79.071,308.206c0.563,0,1.083-0.078,1.57-0.232
			c0.482-0.156,0.907-0.377,1.273-0.666c0.368-0.291,0.655-0.631,0.866-1.027c0.21-0.396,0.317-0.84,0.317-1.318v-1.125
			c-0.453-0.125-0.969-0.24-1.544-0.352c-0.578-0.107-1.241-0.16-1.989-0.16c-1.124,0-1.993,0.221-2.609,0.664
			c-0.616,0.441-0.924,1.033-0.924,1.766v0.045c0,0.375,0.082,0.713,0.245,1.016c0.163,0.305,0.387,0.557,0.666,0.76
			c0.283,0.203,0.605,0.359,0.972,0.469S78.666,308.206,79.071,308.206z"/>
		<path fill="#808184" d="M93.331,309.638c-0.484,0-0.938-0.061-1.361-0.186c-0.421-0.127-0.786-0.326-1.091-0.6
			c-0.306-0.271-0.544-0.629-0.716-1.066c-0.174-0.441-0.258-0.965-0.258-1.574v-7.326h-1.689v-1.594h1.689v-3.664h1.807v3.664h3.85
			v1.594h-3.85v7.072c0,0.75,0.189,1.271,0.563,1.57c0.377,0.297,0.869,0.443,1.479,0.443c0.313,0,0.607-0.029,0.882-0.088
			c0.273-0.059,0.565-0.164,0.879-0.312v1.551c-0.314,0.172-0.646,0.301-0.997,0.387C94.164,309.595,93.77,309.638,93.331,309.638z"
			/>
		<path fill="#808184" d="M104.882,309.71c-0.91,0-1.745-0.168-2.513-0.504c-0.766-0.338-1.431-0.791-1.996-1.363
			c-0.561-0.57-1-1.234-1.312-1.996c-0.313-0.758-0.47-1.566-0.47-2.43v-0.045c0-0.863,0.156-1.674,0.47-2.443
			c0.312-0.766,0.751-1.439,1.312-2.018c0.565-0.578,1.234-1.037,2.009-1.373c0.773-0.338,1.624-0.506,2.547-0.506
			c0.908,0,1.75,0.168,2.523,0.506c0.775,0.336,1.445,0.791,2.007,1.361c0.564,0.57,1.002,1.236,1.314,1.996
			c0.313,0.76,0.473,1.568,0.473,2.43v0.047c0,0.861-0.163,1.672-0.483,2.439c-0.32,0.768-0.761,1.441-1.326,2.02
			c-0.564,0.578-1.237,1.037-2.018,1.375C106.635,309.542,105.789,309.71,104.882,309.71z M104.929,308.089
			c0.657,0,1.259-0.125,1.807-0.375c0.548-0.248,1.018-0.588,1.408-1.01c0.393-0.422,0.697-0.916,0.917-1.48
			c0.219-0.561,0.328-1.164,0.328-1.807v-0.045c0-0.66-0.115-1.273-0.34-1.844c-0.227-0.572-0.544-1.07-0.951-1.504
			c-0.408-0.428-0.885-0.77-1.434-1.021c-0.545-0.248-1.14-0.375-1.783-0.375c-0.657,0-1.26,0.127-1.809,0.375
			c-0.548,0.252-1.013,0.588-1.396,1.012c-0.384,0.42-0.684,0.918-0.905,1.49c-0.218,0.57-0.328,1.176-0.328,1.82v0.047
			c0,0.654,0.113,1.271,0.34,1.842c0.226,0.57,0.541,1.068,0.939,1.49c0.398,0.422,0.872,0.762,1.421,1.01
			C103.692,307.964,104.287,308.089,104.929,308.089z M106.432,292.054l1.877,0.871l-2.651,2.533h-1.456L106.432,292.054z"/>
		<path fill="#808184" d="M115.095,297.292h1.808v3.168c0.218-0.5,0.492-0.961,0.822-1.385c0.327-0.424,0.702-0.789,1.126-1.092
			c0.423-0.305,0.884-0.535,1.385-0.691c0.501-0.158,1.042-0.227,1.62-0.213v1.947h-0.141c-0.659,0-1.281,0.117-1.869,0.354
			c-0.587,0.234-1.1,0.588-1.535,1.055c-0.439,0.471-0.784,1.057-1.032,1.75c-0.251,0.699-0.376,1.5-0.376,2.408v4.836h-1.808
			V297.292z"/>
		<path fill="#808184" d="M125.235,292.642h2.066v1.996h-2.066V292.642z M125.354,297.292h1.806v12.137h-1.806V297.292z"/>
		<path fill="#808184" d="M137.489,309.71c-0.907,0-1.744-0.168-2.512-0.504c-0.766-0.338-1.431-0.791-1.995-1.363
			c-0.563-0.57-1.001-1.234-1.314-1.996c-0.312-0.758-0.47-1.566-0.47-2.43v-0.045c0-0.863,0.158-1.674,0.47-2.443
			c0.312-0.766,0.75-1.439,1.314-2.018s1.232-1.037,2.007-1.373c0.773-0.338,1.624-0.506,2.547-0.506
			c0.907,0,1.75,0.168,2.524,0.506c0.776,0.336,1.444,0.791,2.006,1.361c0.562,0.57,1.002,1.236,1.314,1.996
			c0.314,0.76,0.472,1.568,0.472,2.43v0.047c0,0.861-0.162,1.672-0.482,2.439c-0.322,0.768-0.763,1.441-1.328,2.02
			c-0.562,0.578-1.235,1.037-2.017,1.375C139.243,309.542,138.397,309.71,137.489,309.71z M137.537,308.089
			c0.657,0,1.26-0.125,1.808-0.375c0.548-0.248,1.017-0.588,1.407-1.01c0.392-0.422,0.696-0.916,0.917-1.48
			c0.218-0.561,0.328-1.164,0.328-1.807v-0.045c0-0.66-0.114-1.273-0.34-1.844c-0.227-0.572-0.544-1.07-0.951-1.504
			c-0.408-0.428-0.884-0.77-1.433-1.021c-0.547-0.248-1.142-0.375-1.785-0.375c-0.656,0-1.259,0.127-1.808,0.375
			c-0.548,0.252-1.012,0.588-1.396,1.012c-0.384,0.42-0.684,0.918-0.903,1.49c-0.219,0.57-0.329,1.176-0.329,1.82v0.047
			c0,0.654,0.112,1.271,0.34,1.842c0.227,0.57,0.539,1.068,0.938,1.49c0.398,0.422,0.874,0.762,1.422,1.01
			C136.301,307.964,136.894,308.089,137.537,308.089z"/>
		<path fill="#808184" d="M160.425,309.687c-0.735,0-1.447-0.143-2.134-0.424c-0.691-0.281-1.308-0.691-1.856-1.23
			c-0.548-0.543-0.986-1.199-1.316-1.973c-0.327-0.775-0.492-1.664-0.492-2.666v-0.045c0-0.986,0.165-1.871,0.492-2.654
			c0.33-0.783,0.768-1.443,1.316-1.982c0.548-0.541,1.165-0.955,1.856-1.246c0.687-0.291,1.399-0.434,2.134-0.434
			c0.565,0,1.081,0.07,1.552,0.211c0.467,0.141,0.892,0.328,1.265,0.564c0.378,0.234,0.717,0.51,1.023,0.82
			c0.305,0.312,0.574,0.641,0.809,0.986v-7.326h1.807v17.141h-1.807v-2.443c-0.251,0.359-0.528,0.705-0.832,1.031
			c-0.307,0.332-0.648,0.621-1.024,0.869c-0.375,0.252-0.795,0.449-1.256,0.588C161.501,309.614,160.99,309.687,160.425,309.687z
			 M160.754,308.065c0.562,0,1.106-0.111,1.632-0.34c0.523-0.227,0.993-0.547,1.408-0.963c0.413-0.414,0.744-0.906,0.984-1.479
			c0.245-0.572,0.364-1.207,0.364-1.912v-0.047c0-0.705-0.12-1.344-0.364-1.916c-0.24-0.57-0.571-1.057-0.984-1.465
			c-0.415-0.408-0.885-0.727-1.408-0.953c-0.526-0.225-1.07-0.34-1.632-0.34c-0.595,0-1.15,0.105-1.666,0.316
			c-0.517,0.213-0.968,0.518-1.351,0.918c-0.383,0.396-0.689,0.885-0.917,1.467c-0.224,0.578-0.338,1.236-0.338,1.973v0.047
			c0,0.719,0.114,1.369,0.338,1.947c0.228,0.578,0.536,1.072,0.928,1.477c0.392,0.41,0.846,0.721,1.36,0.941
			C159.627,307.958,160.176,308.065,160.754,308.065z"/>
		<path fill="#808184" d="M172.585,304.101c0.062,0.641,0.219,1.211,0.47,1.711c0.251,0.5,0.572,0.926,0.964,1.268
			c0.389,0.344,0.83,0.607,1.316,0.787c0.484,0.18,0.991,0.271,1.523,0.271c0.846,0,1.569-0.156,2.171-0.471
			c0.602-0.312,1.153-0.727,1.657-1.244l1.127,1.01c-0.611,0.688-1.307,1.24-2.09,1.654c-0.782,0.416-1.751,0.623-2.911,0.623
			c-0.83,0-1.614-0.152-2.346-0.459c-0.738-0.305-1.381-0.734-1.925-1.291c-0.551-0.555-0.984-1.223-1.305-2.008
			c-0.32-0.783-0.479-1.643-0.479-2.58c0-0.877,0.141-1.701,0.433-2.477c0.289-0.775,0.691-1.447,1.208-2.018
			c0.516-0.572,1.131-1.023,1.844-1.352c0.712-0.33,1.489-0.494,2.335-0.494c0.892,0,1.692,0.168,2.395,0.506
			c0.703,0.336,1.3,0.795,1.784,1.373c0.483,0.578,0.853,1.258,1.104,2.041c0.249,0.783,0.376,1.619,0.376,2.514
			c0,0.076,0,0.168,0,0.27s-0.009,0.223-0.025,0.365H172.585z M180.404,302.62c-0.046-0.545-0.164-1.062-0.353-1.551
			c-0.187-0.492-0.44-0.926-0.761-1.299s-0.712-0.668-1.175-0.885c-0.461-0.217-0.989-0.326-1.583-0.326
			c-0.517,0-1.003,0.1-1.457,0.301c-0.454,0.203-0.854,0.486-1.197,0.854c-0.346,0.365-0.629,0.797-0.857,1.297
			c-0.228,0.498-0.374,1.033-0.436,1.609H180.404z"/>
		<path fill="#808184" d="M198.269,294.708h-5.516v-1.713h12.889v1.713h-5.518v14.721h-1.855V294.708z"/>
		<path fill="#808184" d="M210.501,304.101c0.062,0.641,0.219,1.211,0.47,1.711c0.249,0.5,0.57,0.926,0.964,1.268
			c0.387,0.344,0.828,0.607,1.313,0.787c0.484,0.18,0.994,0.271,1.526,0.271c0.846,0,1.567-0.156,2.168-0.471
			c0.604-0.312,1.155-0.727,1.657-1.244l1.127,1.01c-0.608,0.688-1.307,1.24-2.09,1.654c-0.781,0.416-1.751,0.623-2.911,0.623
			c-0.83,0-1.611-0.152-2.346-0.459c-0.738-0.305-1.378-0.734-1.927-1.291c-0.548-0.555-0.982-1.223-1.302-2.008
			c-0.32-0.783-0.479-1.643-0.479-2.58c0-0.877,0.143-1.701,0.433-2.477c0.289-0.775,0.691-1.447,1.21-2.018
			c0.514-0.572,1.129-1.023,1.841-1.352c0.712-0.33,1.491-0.494,2.335-0.494c0.894,0,1.691,0.168,2.396,0.506
			c0.703,0.336,1.298,0.795,1.782,1.373c0.486,0.578,0.855,1.258,1.104,2.041c0.251,0.783,0.378,1.619,0.378,2.514
			c0,0.076,0,0.168,0,0.27s-0.012,0.223-0.025,0.365H210.501z M218.317,302.62c-0.046-0.545-0.161-1.062-0.35-1.551
			c-0.189-0.492-0.443-0.926-0.763-1.299c-0.321-0.373-0.712-0.668-1.176-0.885c-0.459-0.217-0.989-0.326-1.583-0.326
			c-0.517,0-1,0.1-1.457,0.301c-0.452,0.203-0.851,0.486-1.196,0.854c-0.346,0.365-0.629,0.797-0.858,1.297
			c-0.226,0.498-0.371,1.033-0.433,1.609H218.317z"/>
		<path fill="#808184" d="M229.375,309.71c-0.892,0-1.717-0.168-2.476-0.504c-0.76-0.338-1.417-0.791-1.973-1.363
			c-0.558-0.57-0.99-1.24-1.302-2.006c-0.313-0.768-0.47-1.574-0.47-2.42v-0.045c0-0.863,0.157-1.674,0.47-2.443
			c0.312-0.766,0.745-1.439,1.302-2.018c0.556-0.578,1.213-1.037,1.973-1.373c0.759-0.338,1.584-0.506,2.476-0.506
			c0.579,0,1.103,0.053,1.572,0.164c0.47,0.109,0.901,0.262,1.294,0.459c0.391,0.193,0.748,0.424,1.078,0.691
			s0.634,0.549,0.915,0.846l-1.196,1.268c-0.486-0.5-1.015-0.932-1.586-1.293c-0.572-0.359-1.272-0.539-2.1-0.539
			c-0.611,0-1.186,0.121-1.715,0.363c-0.533,0.242-0.993,0.578-1.386,0.998c-0.392,0.422-0.696,0.92-0.915,1.492
			s-0.33,1.184-0.33,1.844v0.047c0,0.654,0.113,1.271,0.342,1.842c0.227,0.57,0.541,1.07,0.94,1.504
			c0.399,0.428,0.866,0.766,1.409,1.008c0.539,0.244,1.129,0.363,1.77,0.363c0.783,0,1.478-0.172,2.079-0.518
			c0.602-0.342,1.146-0.775,1.632-1.289l1.15,1.08c-0.611,0.688-1.303,1.252-2.077,1.689S230.517,309.71,229.375,309.71z"/>
		<path fill="#808184" d="M237.897,297.292h1.808v2.111c0.408-0.658,0.94-1.217,1.597-1.68c0.659-0.461,1.511-0.691,2.559-0.691
			c0.737,0,1.39,0.119,1.962,0.352c0.571,0.234,1.055,0.568,1.457,1c0.398,0.428,0.702,0.941,0.912,1.535
			c0.215,0.596,0.318,1.254,0.318,1.973v7.537h-1.811v-7.076c0-1.123-0.287-2.016-0.866-2.67c-0.578-0.656-1.408-0.982-2.486-0.982
			c-0.519,0-1.001,0.088-1.448,0.268c-0.444,0.182-0.832,0.439-1.159,0.773s-0.585,0.74-0.763,1.205
			c-0.18,0.471-0.271,0.986-0.271,1.549v6.934h-1.808V297.292z"/>
		<path fill="#808184" d="M258.487,309.71c-0.908,0-1.744-0.168-2.513-0.504c-0.768-0.338-1.431-0.791-1.996-1.363
			c-0.562-0.57-1-1.234-1.313-1.996c-0.313-0.758-0.47-1.566-0.47-2.43v-0.045c0-0.863,0.156-1.674,0.47-2.443
			c0.313-0.766,0.751-1.439,1.313-2.018c0.565-0.578,1.233-1.037,2.008-1.373c0.775-0.338,1.625-0.506,2.547-0.506
			c0.908,0,1.749,0.168,2.524,0.506c0.776,0.336,1.445,0.791,2.008,1.361c0.563,0.57,1,1.236,1.313,1.996
			c0.312,0.76,0.47,1.568,0.47,2.43v0.047c0,0.861-0.159,1.672-0.479,2.439c-0.322,0.768-0.764,1.441-1.327,2.02
			c-0.564,0.578-1.235,1.037-2.02,1.375C260.239,309.542,259.393,309.71,258.487,309.71z M258.533,308.089
			c0.657,0,1.261-0.125,1.81-0.375c0.549-0.248,1.016-0.588,1.406-1.01c0.392-0.422,0.698-0.916,0.917-1.48
			c0.22-0.561,0.327-1.164,0.327-1.807v-0.045c0-0.66-0.112-1.273-0.339-1.844c-0.229-0.572-0.544-1.07-0.952-1.504
			c-0.405-0.428-0.883-0.77-1.431-1.021c-0.546-0.248-1.144-0.375-1.784-0.375c-0.656,0-1.261,0.127-1.81,0.375
			c-0.549,0.252-1.012,0.588-1.396,1.012c-0.383,0.422-0.682,0.918-0.903,1.49c-0.22,0.57-0.327,1.178-0.327,1.82v0.047
			c0,0.654,0.112,1.271,0.338,1.842c0.227,0.57,0.542,1.068,0.941,1.49c0.398,0.422,0.871,0.762,1.42,1.01
			C257.295,307.964,257.892,308.089,258.533,308.089z"/>
		<path fill="#808184" d="M268.863,292.288h1.808v17.141h-1.808V292.288z"/>
		<path fill="#808184" d="M281.001,309.71c-0.909,0-1.745-0.168-2.513-0.504c-0.768-0.338-1.432-0.791-1.996-1.363
			c-0.562-0.57-1.001-1.234-1.314-1.996c-0.311-0.758-0.467-1.566-0.467-2.43v-0.045c0-0.863,0.156-1.674,0.467-2.443
			c0.313-0.766,0.752-1.439,1.314-2.018c0.564-0.578,1.235-1.037,2.01-1.373c0.774-0.338,1.623-0.506,2.545-0.506
			c0.91,0,1.749,0.168,2.523,0.506c0.777,0.336,1.445,0.791,2.008,1.361c0.565,0.57,1.003,1.236,1.313,1.996
			c0.313,0.76,0.471,1.568,0.471,2.43v0.047c0,0.861-0.16,1.672-0.48,2.439c-0.322,0.768-0.764,1.441-1.327,2.02
			c-0.564,0.578-1.235,1.037-2.02,1.375C282.752,309.542,281.91,309.71,281.001,309.71z M281.047,308.089
			c0.656,0,1.26-0.123,1.809-0.375c0.547-0.248,1.018-0.588,1.406-1.01c0.392-0.422,0.698-0.916,0.918-1.48
			c0.219-0.561,0.329-1.164,0.329-1.807v-0.045c0-0.66-0.115-1.273-0.341-1.844c-0.229-0.572-0.544-1.07-0.952-1.504
			c-0.405-0.428-0.883-0.77-1.431-1.021c-0.549-0.248-1.145-0.375-1.784-0.375c-0.657,0-1.259,0.127-1.808,0.375
			c-0.549,0.252-1.014,0.588-1.396,1.012c-0.385,0.422-0.685,0.918-0.906,1.49c-0.219,0.57-0.327,1.178-0.327,1.82v0.047
			c0,0.654,0.113,1.271,0.341,1.842c0.227,0.57,0.539,1.068,0.938,1.49s0.873,0.762,1.422,1.01
			C279.812,307.966,280.404,308.089,281.047,308.089z"/>
		<path fill="#808184" d="M296.589,313.231c-1.017,0-1.987-0.143-2.912-0.424c-0.921-0.281-1.79-0.703-2.604-1.268l0.821-1.406
			c0.706,0.498,1.44,0.883,2.208,1.148c0.766,0.266,1.588,0.4,2.464,0.4c1.346,0,2.418-0.363,3.216-1.092
			c0.797-0.729,1.198-1.803,1.198-3.229v-1.434c-0.532,0.705-1.183,1.309-1.95,1.809c-0.768,0.502-1.705,0.752-2.816,0.752
			c-0.735,0-1.443-0.133-2.123-0.4c-0.682-0.264-1.289-0.645-1.82-1.135c-0.532-0.496-0.957-1.092-1.279-1.785
			c-0.32-0.697-0.481-1.484-0.481-2.359v-0.049c0-0.893,0.161-1.689,0.481-2.395c0.322-0.703,0.747-1.305,1.279-1.797
			c0.531-0.492,1.141-0.873,1.832-1.139c0.687-0.264,1.392-0.398,2.111-0.398c0.562,0,1.083,0.068,1.562,0.199
			c0.477,0.133,0.906,0.309,1.291,0.529c0.382,0.217,0.73,0.475,1.044,0.775c0.313,0.295,0.595,0.607,0.846,0.938v-2.182h1.807
			v10.023c0,0.938-0.134,1.762-0.397,2.477c-0.269,0.711-0.651,1.32-1.151,1.82c-0.549,0.545-1.215,0.953-1.995,1.219
			C298.435,313.097,297.559,313.231,296.589,313.231z M296.566,306.894c0.579,0,1.136-0.098,1.666-0.295
			c0.532-0.193,1.008-0.479,1.42-0.844c0.415-0.369,0.747-0.803,0.999-1.305c0.25-0.5,0.375-1.057,0.375-1.664v-0.049
			c0-0.627-0.125-1.189-0.375-1.689c-0.252-0.502-0.584-0.932-0.999-1.293c-0.412-0.359-0.888-0.639-1.42-0.832
			c-0.53-0.195-1.087-0.295-1.666-0.295s-1.123,0.1-1.632,0.295c-0.51,0.193-0.954,0.469-1.339,0.82
			c-0.383,0.352-0.685,0.779-0.904,1.279c-0.219,0.504-0.327,1.064-0.327,1.689v0.049c0,0.611,0.113,1.168,0.339,1.68
			c0.229,0.508,0.533,0.943,0.918,1.301c0.383,0.361,0.829,0.643,1.339,0.848C295.466,306.792,296.001,306.894,296.566,306.894z"/>
		<path fill="#808184" d="M307.434,292.642h2.067v1.996h-2.067V292.642z M307.551,297.292h1.81v12.137h-1.81V297.292z"/>
		<path fill="#808184" d="M317.764,309.687c-0.564,0-1.118-0.078-1.667-0.234c-0.549-0.158-1.032-0.396-1.456-0.717
			c-0.422-0.32-0.763-0.719-1.02-1.188c-0.26-0.469-0.389-1.014-0.389-1.641v-0.047c0-0.658,0.127-1.232,0.375-1.727
			c0.252-0.494,0.609-0.904,1.069-1.232c0.462-0.33,1.011-0.578,1.644-0.752c0.632-0.17,1.332-0.258,2.101-0.258
			c0.783,0,1.459,0.045,2.03,0.143c0.571,0.092,1.132,0.217,1.681,0.375v-0.375c0-1.07-0.313-1.885-0.938-2.438
			c-0.629-0.551-1.512-0.826-2.655-0.826c-0.72,0-1.371,0.078-1.96,0.232c-0.585,0.158-1.163,0.369-1.726,0.635l-0.54-1.486
			c0.672-0.318,1.354-0.572,2.043-0.764c0.689-0.189,1.479-0.285,2.371-0.285c1.72,0,3.027,0.445,3.919,1.336
			c0.846,0.848,1.267,2.039,1.267,3.572v7.418h-1.78v-1.807c-0.425,0.549-0.989,1.027-1.704,1.441
			C319.715,309.479,318.83,309.687,317.764,309.687z M318.131,308.206c0.559,0,1.082-0.078,1.567-0.232
			c0.483-0.156,0.907-0.377,1.273-0.666c0.366-0.287,0.655-0.631,0.866-1.027c0.21-0.396,0.317-0.84,0.317-1.318v-1.125
			c-0.453-0.125-0.969-0.24-1.546-0.352c-0.577-0.107-1.24-0.16-1.988-0.16c-1.125,0-1.994,0.221-2.609,0.664
			c-0.615,0.441-0.924,1.033-0.924,1.766v0.045c0,0.375,0.082,0.713,0.247,1.018c0.161,0.303,0.384,0.557,0.663,0.758
			c0.283,0.203,0.605,0.359,0.973,0.469C317.337,308.153,317.725,308.206,318.131,308.206z"/>
		<path fill="#808184" d="M341.052,309.687c-0.734,0-1.447-0.143-2.136-0.424c-0.689-0.281-1.305-0.691-1.854-1.23
			c-0.549-0.543-0.986-1.199-1.316-1.973c-0.327-0.775-0.492-1.664-0.492-2.666v-0.045c0-0.986,0.165-1.871,0.492-2.654
			c0.33-0.783,0.768-1.443,1.316-1.982c0.549-0.541,1.164-0.955,1.854-1.246c0.688-0.291,1.401-0.434,2.136-0.434
			c0.564,0,1.081,0.07,1.552,0.213c0.468,0.139,0.889,0.326,1.265,0.562c0.376,0.234,0.717,0.51,1.024,0.82
			c0.304,0.312,0.573,0.643,0.809,0.986v-7.326h1.808v17.141h-1.808v-2.443c-0.252,0.359-0.527,0.705-0.832,1.031
			c-0.307,0.332-0.648,0.621-1.023,0.869c-0.375,0.252-0.795,0.449-1.256,0.588C342.128,309.614,341.617,309.687,341.052,309.687z
			 M341.382,308.065c0.562,0,1.106-0.111,1.632-0.338c0.523-0.229,0.994-0.549,1.408-0.965c0.413-0.414,0.745-0.906,0.984-1.479
			c0.244-0.572,0.363-1.207,0.363-1.912v-0.047c0-0.705-0.119-1.344-0.363-1.916c-0.239-0.568-0.571-1.057-0.984-1.465
			c-0.414-0.408-0.885-0.727-1.408-0.953c-0.525-0.225-1.069-0.34-1.632-0.34c-0.597,0-1.15,0.105-1.669,0.316
			c-0.514,0.213-0.965,0.518-1.348,0.918c-0.383,0.396-0.689,0.885-0.918,1.467c-0.227,0.578-0.337,1.236-0.337,1.973v0.047
			c0,0.719,0.11,1.369,0.337,1.947c0.229,0.578,0.537,1.072,0.93,1.477c0.392,0.41,0.846,0.721,1.359,0.941
			C340.255,307.958,340.804,308.065,341.382,308.065z"/>
		<path fill="#808184" d="M355.749,309.687c-0.564,0-1.117-0.078-1.666-0.234c-0.549-0.158-1.035-0.396-1.457-0.717
			c-0.421-0.32-0.763-0.719-1.021-1.188c-0.257-0.469-0.39-1.014-0.39-1.641v-0.047c0-0.658,0.128-1.232,0.379-1.727
			s0.606-0.904,1.069-1.232c0.46-0.33,1.007-0.578,1.642-0.752c0.633-0.17,1.334-0.258,2.102-0.258c0.781,0,1.459,0.045,2.03,0.143
			c0.572,0.092,1.13,0.217,1.678,0.375v-0.375c0-1.07-0.311-1.885-0.938-2.438c-0.628-0.551-1.513-0.826-2.653-0.826
			c-0.719,0-1.373,0.078-1.959,0.232c-0.587,0.158-1.164,0.369-1.729,0.635l-0.537-1.486c0.671-0.318,1.353-0.572,2.042-0.764
			c0.688-0.189,1.479-0.285,2.37-0.285c1.721,0,3.028,0.445,3.921,1.336c0.846,0.848,1.269,2.039,1.269,3.572v7.418h-1.786v-1.807
			c-0.421,0.549-0.988,1.027-1.701,1.441C357.701,309.479,356.811,309.687,355.749,309.687z M356.113,308.206
			c0.562,0,1.083-0.078,1.569-0.232c0.482-0.156,0.906-0.377,1.275-0.666c0.366-0.287,0.654-0.631,0.864-1.027
			c0.212-0.396,0.315-0.84,0.315-1.318v-1.125c-0.451-0.125-0.966-0.24-1.544-0.352c-0.577-0.107-1.24-0.16-1.987-0.16
			c-1.125,0-1.993,0.221-2.609,0.664c-0.617,0.441-0.924,1.033-0.924,1.766v0.045c0,0.375,0.08,0.713,0.246,1.018
			c0.161,0.303,0.386,0.557,0.666,0.758c0.279,0.203,0.604,0.359,0.971,0.469C355.323,308.153,355.708,308.206,356.113,308.206z"/>
		<path fill="#808184" d="M374.415,292.995h1.85v16.434h-1.85V292.995z"/>
		<path fill="#808184" d="M381.361,297.292h1.808v2.111c0.407-0.658,0.938-1.217,1.596-1.68c0.658-0.461,1.511-0.691,2.56-0.691
			c0.735,0,1.39,0.119,1.962,0.352c0.57,0.234,1.056,0.568,1.453,1c0.399,0.428,0.706,0.941,0.916,1.535
			c0.212,0.596,0.317,1.254,0.317,1.973v7.537h-1.809v-7.076c0-1.123-0.291-2.016-0.866-2.67c-0.579-0.656-1.411-0.982-2.49-0.982
			c-0.519,0-0.998,0.088-1.445,0.268c-0.444,0.182-0.832,0.439-1.161,0.773c-0.327,0.334-0.584,0.74-0.764,1.205
			c-0.18,0.471-0.269,0.986-0.269,1.549v6.934h-1.808V297.292z"/>
		<path fill="#808184" d="M397.089,298.886h-1.667v-1.572h1.667v-1.055c0-1.379,0.353-2.42,1.056-3.125
			c0.627-0.625,1.495-0.938,2.606-0.938c0.423,0,0.786,0.023,1.091,0.07c0.307,0.045,0.608,0.127,0.906,0.234v1.572
			c-0.328-0.092-0.628-0.166-0.893-0.221c-0.268-0.055-0.556-0.084-0.869-0.084c-1.41,0-2.113,0.863-2.113,2.582v0.986h3.852v1.549
			h-3.828v10.543h-1.808V298.886z"/>
		<path fill="#808184" d="M411.155,309.71c-0.911,0-1.748-0.168-2.514-0.504c-0.768-0.338-1.431-0.791-1.996-1.363
			c-0.562-0.57-1.002-1.234-1.313-1.996c-0.312-0.758-0.47-1.566-0.47-2.43v-0.045c0-0.863,0.157-1.674,0.47-2.443
			c0.312-0.766,0.751-1.439,1.313-2.018c0.565-0.578,1.233-1.037,2.008-1.373c0.774-0.338,1.623-0.506,2.547-0.506
			c0.908,0,1.749,0.168,2.521,0.506c0.776,0.336,1.448,0.791,2.01,1.361c0.562,0.57,1.001,1.236,1.314,1.996s0.47,1.568,0.47,2.43
			v0.047c0,0.861-0.161,1.672-0.481,2.439c-0.322,0.768-0.764,1.441-1.326,2.02c-0.563,0.578-1.236,1.037-2.019,1.375
			C412.905,309.542,412.059,309.71,411.155,309.71z M411.2,308.089c0.656,0,1.259-0.123,1.808-0.375
			c0.549-0.248,1.019-0.588,1.408-1.01c0.392-0.422,0.698-0.916,0.917-1.48c0.219-0.561,0.328-1.164,0.328-1.807v-0.045
			c0-0.66-0.116-1.273-0.342-1.844c-0.226-0.572-0.542-1.07-0.95-1.504c-0.408-0.428-0.885-0.77-1.434-1.021
			c-0.544-0.248-1.141-0.375-1.78-0.375c-0.658,0-1.262,0.127-1.811,0.375c-0.548,0.252-1.012,0.588-1.396,1.012
			c-0.385,0.422-0.685,0.918-0.903,1.49c-0.22,0.57-0.33,1.178-0.33,1.82v0.047c0,0.654,0.115,1.271,0.342,1.842
			c0.226,0.572,0.541,1.068,0.94,1.49c0.398,0.422,0.871,0.762,1.419,1.01C409.964,307.966,410.559,308.089,411.2,308.089z"/>
		<path fill="#808184" d="M421.365,297.292h1.807v3.168c0.22-0.5,0.493-0.961,0.823-1.385c0.327-0.424,0.703-0.789,1.125-1.092
			c0.424-0.305,0.885-0.535,1.388-0.691c0.5-0.158,1.039-0.227,1.619-0.213v1.947h-0.143c-0.656,0-1.278,0.117-1.866,0.354
			c-0.589,0.234-1.1,0.588-1.538,1.057c-0.438,0.469-0.781,1.055-1.032,1.748c-0.249,0.699-0.376,1.5-0.376,2.408v4.836h-1.807
			V297.292z"/>
		<path fill="#808184" d="M431.459,297.292h1.808v2.041c0.203-0.295,0.427-0.588,0.668-0.867c0.245-0.283,0.521-0.529,0.834-0.742
			c0.314-0.209,0.667-0.377,1.056-0.504c0.393-0.125,0.847-0.188,1.363-0.188c0.986,0,1.8,0.23,2.44,0.691
			c0.641,0.463,1.129,1.037,1.456,1.725c0.22-0.328,0.467-0.641,0.74-0.936c0.271-0.299,0.584-0.559,0.927-0.775
			c0.346-0.221,0.733-0.391,1.164-0.518c0.429-0.125,0.908-0.188,1.443-0.188c1.408,0,2.512,0.434,3.31,1.303
			c0.797,0.869,1.196,2.062,1.196,3.58v7.514h-1.81v-7.076c0-1.17-0.276-2.074-0.83-2.707c-0.558-0.631-1.327-0.945-2.314-0.945
			c-0.453,0-0.885,0.08-1.29,0.246c-0.408,0.162-0.763,0.404-1.067,0.723c-0.306,0.322-0.549,0.715-0.729,1.186
			c-0.182,0.469-0.269,1-0.269,1.592v6.982h-1.787v-7.123c0-1.137-0.277-2.027-0.832-2.66c-0.556-0.631-1.321-0.945-2.288-0.945
			c-0.487,0-0.932,0.094-1.34,0.279c-0.405,0.188-0.763,0.453-1.067,0.797c-0.307,0.346-0.543,0.746-0.716,1.207
			s-0.259,0.973-0.259,1.535v6.91h-1.808V297.292z"/>
		<path fill="#808184" d="M457.988,309.687c-0.565,0-1.119-0.078-1.667-0.234c-0.549-0.158-1.033-0.396-1.455-0.717
			c-0.424-0.32-0.765-0.719-1.021-1.188c-0.261-0.469-0.39-1.014-0.39-1.641v-0.047c0-0.658,0.125-1.232,0.375-1.727
			c0.252-0.494,0.609-0.904,1.07-1.232c0.461-0.33,1.01-0.578,1.644-0.752c0.634-0.17,1.332-0.258,2.102-0.258
			c0.781,0,1.457,0.045,2.028,0.143c0.571,0.092,1.132,0.217,1.681,0.375v-0.375c0-1.07-0.314-1.885-0.94-2.438
			c-0.624-0.551-1.51-0.826-2.651-0.826c-0.721,0-1.376,0.078-1.961,0.232c-0.588,0.158-1.162,0.369-1.727,0.635l-0.539-1.486
			c0.673-0.316,1.354-0.572,2.042-0.764c0.688-0.189,1.479-0.285,2.372-0.285c1.719,0,3.026,0.445,3.918,1.336
			c0.846,0.848,1.27,2.039,1.27,3.572v7.418h-1.783v-1.807c-0.425,0.549-0.991,1.027-1.704,1.441
			C459.939,309.479,459.052,309.687,457.988,309.687z M458.352,308.206c0.563,0,1.084-0.078,1.569-0.232
			c0.483-0.156,0.907-0.377,1.273-0.666c0.369-0.287,0.655-0.631,0.867-1.027c0.21-0.396,0.315-0.84,0.315-1.318v-1.125
			c-0.451-0.125-0.968-0.24-1.544-0.352c-0.578-0.107-1.24-0.16-1.989-0.16c-1.125,0-1.994,0.221-2.608,0.664
			c-0.616,0.441-0.925,1.033-0.925,1.766v0.045c0,0.375,0.082,0.713,0.246,1.018c0.162,0.303,0.385,0.557,0.667,0.758
			c0.28,0.203,0.604,0.359,0.97,0.469S457.946,308.206,458.352,308.206z"/>
		<path fill="#808184" d="M471.065,312.269l1.832-2.676c-0.736-0.127-1.418-0.375-2.044-0.752c-0.624-0.375-1.166-0.836-1.621-1.385
			c-0.453-0.549-0.804-1.168-1.056-1.854c-0.25-0.691-0.375-1.418-0.375-2.186v-0.045c0-0.863,0.157-1.674,0.471-2.443
			c0.312-0.766,0.747-1.439,1.302-2.018c0.556-0.578,1.212-1.037,1.973-1.373c0.759-0.338,1.584-0.506,2.476-0.506
			c0.581,0,1.104,0.053,1.574,0.164c0.47,0.109,0.901,0.262,1.289,0.459c0.392,0.193,0.751,0.424,1.083,0.691
			c0.326,0.268,0.632,0.549,0.915,0.846l-1.196,1.268c-0.486-0.5-1.014-0.932-1.588-1.293c-0.57-0.359-1.271-0.539-2.101-0.539
			c-0.607,0-1.182,0.121-1.712,0.363c-0.532,0.246-0.995,0.578-1.385,0.998c-0.393,0.422-0.696,0.92-0.918,1.492
			c-0.219,0.572-0.327,1.184-0.327,1.844v0.047c0,0.654,0.112,1.271,0.339,1.842c0.226,0.572,0.542,1.07,0.94,1.504
			c0.398,0.428,0.869,0.766,1.408,1.01c0.541,0.242,1.129,0.361,1.772,0.361c0.783,0,1.476-0.172,2.078-0.518
			c0.603-0.342,1.146-0.773,1.63-1.289l1.151,1.08c-0.596,0.654-1.247,1.197-1.957,1.619c-0.715,0.424-1.596,0.664-2.645,0.729
			l-1.549,3.355L471.065,312.269z"/>
		<path fill="#808184" d="M486.16,309.687c-0.564,0-1.12-0.078-1.666-0.234c-0.549-0.158-1.035-0.396-1.457-0.717
			c-0.424-0.32-0.765-0.719-1.021-1.188c-0.258-0.469-0.39-1.014-0.39-1.641v-0.047c0-0.658,0.128-1.232,0.378-1.727
			c0.252-0.494,0.607-0.904,1.07-1.232c0.458-0.33,1.007-0.578,1.641-0.752c0.634-0.17,1.335-0.258,2.103-0.258
			c0.781,0,1.458,0.045,2.03,0.143c0.572,0.092,1.13,0.217,1.679,0.375v-0.375c0-1.07-0.312-1.885-0.938-2.438
			c-0.628-0.551-1.512-0.826-2.653-0.826c-0.719,0-1.373,0.078-1.962,0.232c-0.585,0.158-1.163,0.369-1.726,0.635l-0.54-1.486
			c0.673-0.316,1.355-0.572,2.043-0.764c0.689-0.189,1.481-0.285,2.371-0.285c1.722,0,3.029,0.445,3.921,1.336
			c0.846,0.848,1.268,2.039,1.268,3.572v7.418h-1.783v-1.807c-0.423,0.549-0.989,1.027-1.702,1.441
			C488.109,309.479,487.222,309.687,486.16,309.687z M486.524,308.206c0.562,0,1.083-0.078,1.569-0.232
			c0.482-0.156,0.906-0.377,1.274-0.666c0.367-0.287,0.654-0.631,0.864-1.027s0.316-0.84,0.316-1.318v-1.125
			c-0.452-0.125-0.968-0.24-1.545-0.352c-0.575-0.107-1.24-0.16-1.986-0.16c-1.125,0-1.994,0.221-2.608,0.664
			c-0.618,0.441-0.927,1.033-0.927,1.766v0.045c0,0.375,0.082,0.713,0.246,1.018c0.163,0.303,0.385,0.557,0.667,0.758
			c0.28,0.203,0.605,0.359,0.97,0.469C485.734,308.153,486.119,308.206,486.524,308.206z M483.552,295.366
			c0.235-0.895,0.523-1.527,0.869-1.9c0.346-0.379,0.798-0.566,1.363-0.566c0.265,0,0.537,0.055,0.82,0.152
			c0.283,0.104,0.562,0.213,0.846,0.33c0.28,0.115,0.548,0.225,0.798,0.318c0.251,0.092,0.477,0.139,0.682,0.139
			c0.312,0,0.549-0.084,0.715-0.258c0.166-0.172,0.332-0.471,0.505-0.893l1.104,0.307c-0.234,0.891-0.525,1.525-0.869,1.898
			c-0.344,0.379-0.797,0.564-1.362,0.564c-0.265,0-0.539-0.045-0.82-0.141c-0.284-0.092-0.564-0.197-0.846-0.314
			c-0.284-0.117-0.548-0.229-0.798-0.33c-0.251-0.102-0.477-0.152-0.682-0.152c-0.312,0-0.552,0.086-0.715,0.258
			c-0.164,0.174-0.334,0.471-0.505,0.893L483.552,295.366z"/>
		<path fill="#808184" d="M502.264,309.71c-0.905,0-1.745-0.168-2.513-0.504c-0.766-0.338-1.431-0.791-1.993-1.363
			c-0.563-0.57-1.003-1.234-1.313-1.996c-0.314-0.758-0.472-1.566-0.472-2.43v-0.045c0-0.863,0.157-1.674,0.472-2.443
			c0.311-0.766,0.75-1.439,1.313-2.018c0.562-0.578,1.232-1.037,2.008-1.373c0.771-0.338,1.622-0.506,2.546-0.506
			c0.908,0,1.75,0.168,2.524,0.506c0.774,0.336,1.442,0.791,2.005,1.361c0.564,0.57,1.003,1.236,1.316,1.996s0.47,1.568,0.47,2.43
			v0.047c0,0.861-0.161,1.672-0.481,2.439s-0.763,1.441-1.328,2.02c-0.562,0.578-1.235,1.037-2.016,1.375
			C504.018,309.542,503.172,309.71,502.264,309.71z M502.312,308.089c0.657,0,1.259-0.123,1.808-0.375
			c0.549-0.248,1.019-0.588,1.408-1.01c0.392-0.422,0.696-0.916,0.917-1.48c0.217-0.561,0.328-1.164,0.328-1.807v-0.045
			c0-0.66-0.113-1.273-0.341-1.844c-0.227-0.572-0.545-1.07-0.95-1.504c-0.408-0.428-0.886-0.77-1.435-1.021
			c-0.546-0.248-1.14-0.375-1.783-0.375c-0.657,0-1.258,0.127-1.807,0.375c-0.549,0.252-1.016,0.588-1.397,1.012
			c-0.385,0.422-0.684,0.918-0.905,1.49c-0.217,0.57-0.327,1.178-0.327,1.82v0.047c0,0.654,0.112,1.271,0.341,1.842
			c0.227,0.572,0.542,1.068,0.938,1.49c0.401,0.422,0.873,0.762,1.422,1.01C501.075,307.966,501.669,308.089,502.312,308.089z"/>
		<path fill="#808184" d="M125.529,334.229c0.063,0.641,0.219,1.213,0.47,1.713c0.25,0.502,0.572,0.924,0.963,1.27
			c0.39,0.342,0.828,0.605,1.314,0.785c0.484,0.178,0.994,0.27,1.526,0.27c0.846,0,1.567-0.156,2.171-0.469
			c0.603-0.314,1.154-0.729,1.655-1.246l1.128,1.01c-0.609,0.689-1.307,1.242-2.089,1.656c-0.785,0.414-1.751,0.621-2.911,0.621
			c-0.831,0-1.612-0.152-2.349-0.455c-0.735-0.307-1.377-0.738-1.926-1.291c-0.547-0.559-0.982-1.227-1.303-2.01
			c-0.319-0.783-0.479-1.643-0.479-2.582c0-0.875,0.144-1.701,0.435-2.475c0.288-0.775,0.692-1.449,1.209-2.02
			c0.515-0.572,1.129-1.023,1.842-1.352c0.713-0.326,1.491-0.492,2.336-0.492c0.892,0,1.69,0.17,2.396,0.506
			c0.704,0.334,1.299,0.793,1.783,1.371c0.486,0.58,0.854,1.262,1.103,2.043c0.253,0.781,0.377,1.621,0.377,2.514
			c0,0.078,0,0.166,0,0.27c0,0.1-0.009,0.223-0.024,0.363H125.529z M133.346,332.749c-0.045-0.543-0.164-1.061-0.35-1.551
			c-0.189-0.49-0.442-0.924-0.764-1.295c-0.32-0.375-0.712-0.672-1.174-0.889c-0.46-0.215-0.989-0.326-1.585-0.326
			c-0.516,0-1,0.102-1.454,0.303c-0.454,0.203-0.853,0.488-1.197,0.854c-0.344,0.365-0.63,0.799-0.857,1.295
			c-0.226,0.498-0.371,1.033-0.435,1.609H133.346z"/>
		<path fill="#808184" d="M146.87,323.124h1.879l5.985,8.969l5.988-8.969h1.876v16.434h-1.855v-13.311l-5.986,8.803h-0.093
			l-5.987-8.779v13.287h-1.808V323.124z"/>
		<path fill="#808184" d="M167.692,327.421h1.807v12.137h-1.807V327.421z M170.087,322.187l1.878,0.867l-2.652,2.537h-1.457
			L170.087,322.187z"/>
		<path fill="#808184" d="M179.382,339.817c-0.735,0-1.447-0.143-2.134-0.422c-0.689-0.283-1.309-0.695-1.855-1.234
			c-0.549-0.539-0.984-1.197-1.314-1.971c-0.33-0.775-0.493-1.664-0.493-2.666v-0.047c0-0.986,0.164-1.871,0.493-2.65
			c0.33-0.787,0.765-1.447,1.314-1.986c0.546-0.541,1.167-0.955,1.855-1.246c0.687-0.289,1.399-0.432,2.134-0.432
			c0.565,0,1.082,0.068,1.552,0.211c0.47,0.141,0.892,0.33,1.268,0.562c0.376,0.234,0.717,0.51,1.021,0.824
			c0.304,0.311,0.574,0.639,0.809,0.982v-7.322h1.81v17.137h-1.81v-2.443c-0.249,0.363-0.526,0.705-0.832,1.035
			c-0.304,0.33-0.646,0.621-1.021,0.869c-0.375,0.25-0.794,0.445-1.258,0.586C180.461,339.747,179.948,339.817,179.382,339.817z
			 M179.712,338.198c0.564,0,1.106-0.115,1.632-0.342c0.525-0.225,0.994-0.547,1.411-0.963c0.413-0.414,0.742-0.908,0.984-1.479
			c0.244-0.57,0.364-1.209,0.364-1.914v-0.047c0-0.705-0.12-1.34-0.364-1.912c-0.242-0.572-0.572-1.061-0.984-1.467
			c-0.417-0.41-0.885-0.727-1.411-0.951c-0.525-0.229-1.067-0.342-1.632-0.342c-0.595,0-1.148,0.107-1.667,0.318
			c-0.516,0.211-0.966,0.514-1.349,0.916c-0.384,0.395-0.689,0.887-0.917,1.465c-0.226,0.582-0.338,1.238-0.338,1.973v0.047
			c0,0.723,0.112,1.369,0.338,1.951c0.228,0.576,0.535,1.068,0.927,1.477c0.394,0.408,0.846,0.721,1.362,0.939
			C178.585,338.087,179.134,338.198,179.712,338.198z"/>
		<path fill="#808184" d="M190.511,322.774h2.065v1.996h-2.065V322.774z M190.628,327.421h1.807v12.137h-1.807V327.421z"/>
		<path fill="#808184" d="M200.841,339.817c-0.565,0-1.12-0.08-1.667-0.236c-0.548-0.156-1.035-0.395-1.457-0.715
			c-0.422-0.322-0.763-0.717-1.019-1.186c-0.26-0.469-0.389-1.018-0.389-1.645v-0.047c0-0.658,0.124-1.23,0.375-1.723
			c0.251-0.496,0.609-0.906,1.069-1.234c0.459-0.328,1.008-0.578,1.644-0.75c0.631-0.174,1.332-0.26,2.1-0.26
			c0.784,0,1.459,0.045,2.031,0.141c0.572,0.094,1.129,0.217,1.678,0.375v-0.375c0-1.068-0.311-1.885-0.938-2.436
			c-0.627-0.551-1.51-0.828-2.653-0.828c-0.722,0-1.374,0.08-1.959,0.236c-0.587,0.156-1.164,0.369-1.726,0.633l-0.542-1.486
			c0.673-0.318,1.356-0.57,2.045-0.762c0.687-0.191,1.479-0.289,2.372-0.289c1.719,0,3.026,0.447,3.918,1.34
			c0.846,0.846,1.268,2.035,1.268,3.568v7.418h-1.784v-1.807c-0.422,0.549-0.989,1.029-1.702,1.443
			C202.794,339.608,201.904,339.817,200.841,339.817z M201.206,338.337c0.562,0,1.085-0.08,1.57-0.234
			c0.483-0.154,0.908-0.373,1.274-0.666c0.366-0.285,0.655-0.627,0.864-1.027c0.21-0.396,0.318-0.838,0.318-1.318v-1.125
			c-0.452-0.121-0.971-0.24-1.545-0.35c-0.578-0.105-1.239-0.162-1.989-0.162c-1.125,0-1.994,0.223-2.609,0.666
			c-0.618,0.443-0.924,1.031-0.924,1.764v0.047c0,0.373,0.083,0.715,0.244,1.018c0.164,0.303,0.385,0.559,0.666,0.758
			c0.281,0.201,0.606,0.359,0.973,0.469C200.415,338.284,200.8,338.337,201.206,338.337z"/>
		<path fill="#808184" d="M215.42,339.794c-0.876,0-1.761-0.162-2.653-0.48c-0.892-0.322-1.683-0.756-2.372-1.305l0.917-1.291
			c0.657,0.5,1.341,0.885,2.054,1.15s1.429,0.398,2.148,0.398c0.736,0,1.337-0.17,1.807-0.516c0.47-0.344,0.705-0.816,0.705-1.41
			v-0.047c0-0.295-0.083-0.555-0.249-0.773c-0.164-0.221-0.387-0.412-0.668-0.578c-0.279-0.162-0.606-0.305-0.973-0.432
			c-0.369-0.125-0.747-0.242-1.139-0.354c-0.47-0.141-0.945-0.291-1.422-0.455c-0.477-0.164-0.908-0.371-1.291-0.623
			c-0.385-0.25-0.696-0.564-0.938-0.939c-0.244-0.377-0.364-0.846-0.364-1.408v-0.047c0-0.516,0.102-0.99,0.304-1.42
			c0.203-0.432,0.491-0.799,0.857-1.104c0.366-0.307,0.807-0.543,1.314-0.707c0.509-0.162,1.062-0.246,1.657-0.246
			c0.751,0,1.507,0.125,2.275,0.365c0.768,0.244,1.463,0.568,2.09,0.975l-0.823,1.361c-0.562-0.359-1.153-0.645-1.771-0.857
			c-0.62-0.211-1.224-0.314-1.821-0.314c-0.719,0-1.291,0.168-1.712,0.504c-0.424,0.336-0.634,0.754-0.634,1.254v0.049
			c0,0.283,0.085,0.527,0.258,0.74c0.17,0.211,0.401,0.396,0.693,0.553c0.286,0.154,0.618,0.295,0.996,0.42
			c0.375,0.123,0.765,0.25,1.173,0.377c0.471,0.139,0.936,0.295,1.397,0.469c0.463,0.172,0.88,0.393,1.259,0.656
			c0.373,0.268,0.675,0.59,0.901,0.965c0.228,0.375,0.341,0.836,0.341,1.385v0.049c0,0.574-0.113,1.09-0.341,1.535
			c-0.227,0.445-0.533,0.826-0.916,1.137c-0.385,0.314-0.839,0.555-1.362,0.715C216.596,339.71,216.028,339.794,215.42,339.794z"/>
		<path fill="#808184" d="M231.619,323.124h11.877v1.67h-10.023v5.654h8.968v1.668h-8.968v5.777h10.141v1.664h-11.994V323.124z"/>
		<path fill="#808184" d="M252.724,339.817c-0.737,0-1.449-0.143-2.137-0.422c-0.688-0.283-1.307-0.695-1.855-1.234
			s-0.984-1.197-1.315-1.971c-0.327-0.775-0.491-1.664-0.491-2.666v-0.047c0-0.986,0.164-1.871,0.491-2.65
			c0.331-0.787,0.767-1.447,1.315-1.986c0.549-0.541,1.167-0.955,1.855-1.246c0.688-0.289,1.399-0.432,2.137-0.432
			c0.562,0,1.079,0.068,1.549,0.211c0.471,0.141,0.893,0.33,1.268,0.562c0.377,0.234,0.718,0.51,1.021,0.824
			c0.305,0.311,0.573,0.639,0.812,0.982v-7.322h1.805v17.137h-1.805v-2.443c-0.251,0.363-0.53,0.705-0.834,1.035
			c-0.305,0.33-0.646,0.621-1.022,0.869c-0.375,0.25-0.794,0.445-1.255,0.586C253.8,339.747,253.287,339.817,252.724,339.817z
			 M253.052,338.198c0.562,0,1.105-0.115,1.631-0.342c0.525-0.225,0.996-0.547,1.408-0.963c0.415-0.414,0.745-0.908,0.987-1.479
			c0.241-0.57,0.364-1.209,0.364-1.914v-0.047c0-0.705-0.123-1.34-0.364-1.912c-0.242-0.572-0.572-1.061-0.987-1.467
			c-0.412-0.41-0.883-0.727-1.408-0.951c-0.525-0.229-1.068-0.342-1.631-0.342c-0.596,0-1.148,0.107-1.666,0.318
			s-0.967,0.514-1.35,0.916c-0.385,0.395-0.689,0.887-0.916,1.465c-0.227,0.582-0.34,1.238-0.34,1.973v0.047
			c0,0.723,0.113,1.369,0.34,1.951c0.227,0.576,0.534,1.068,0.926,1.477c0.395,0.408,0.846,0.721,1.361,0.939
			C251.927,338.087,252.476,338.198,253.052,338.198z"/>
		<path fill="#808184" d="M268.264,339.817c-0.735,0-1.39-0.117-1.962-0.354c-0.571-0.232-1.053-0.566-1.454-0.998
			c-0.398-0.428-0.703-0.939-0.914-1.537c-0.213-0.596-0.319-1.252-0.319-1.971v-7.537h1.81v7.076c0,1.125,0.29,2.014,0.869,2.668
			c0.579,0.658,1.406,0.984,2.487,0.984c0.516,0,0.997-0.09,1.445-0.27c0.444-0.18,0.827-0.438,1.149-0.773
			c0.32-0.332,0.574-0.738,0.764-1.207c0.187-0.467,0.28-0.982,0.28-1.545v-6.934h1.784v12.137h-1.784v-2.111
			c-0.408,0.654-0.938,1.217-1.597,1.68C270.166,339.585,269.313,339.817,268.264,339.817z"/>
		<path fill="#808184" d="M284.323,339.839c-0.893,0-1.718-0.168-2.479-0.502c-0.759-0.336-1.415-0.793-1.971-1.365
			c-0.557-0.572-0.991-1.24-1.304-2.004c-0.312-0.766-0.468-1.574-0.468-2.422v-0.045c0-0.861,0.156-1.674,0.468-2.441
			c0.312-0.768,0.747-1.439,1.304-2.02c0.556-0.578,1.212-1.037,1.971-1.371c0.761-0.336,1.586-0.506,2.479-0.506
			c0.578,0,1.104,0.055,1.574,0.166c0.47,0.107,0.898,0.26,1.288,0.455c0.392,0.195,0.751,0.428,1.081,0.693
			s0.634,0.547,0.915,0.848l-1.196,1.264c-0.486-0.5-1.014-0.928-1.586-1.291c-0.572-0.357-1.271-0.537-2.1-0.537
			c-0.61,0-1.183,0.121-1.715,0.363s-0.993,0.574-1.385,0.998c-0.393,0.422-0.696,0.92-0.916,1.49
			c-0.219,0.57-0.329,1.186-0.329,1.842v0.047c0,0.656,0.112,1.271,0.341,1.844c0.227,0.572,0.542,1.072,0.938,1.504
			c0.4,0.428,0.869,0.764,1.408,1.008c0.541,0.242,1.132,0.365,1.772,0.365c0.783,0,1.478-0.174,2.079-0.52
			c0.602-0.342,1.146-0.771,1.632-1.287l1.15,1.078c-0.611,0.689-1.305,1.254-2.079,1.689
			C286.422,339.62,285.462,339.839,284.323,339.839z"/>
		<path fill="#808184" d="M296.46,339.817c-0.565,0-1.118-0.08-1.667-0.236s-1.032-0.395-1.457-0.715
			c-0.421-0.322-0.763-0.717-1.021-1.186s-0.391-1.018-0.391-1.645v-0.047c0-0.658,0.128-1.23,0.379-1.723
			c0.251-0.496,0.606-0.906,1.069-1.234c0.462-0.328,1.007-0.578,1.642-0.75c0.636-0.174,1.334-0.26,2.102-0.26
			c0.781,0,1.459,0.047,2.03,0.141c0.572,0.094,1.133,0.217,1.679,0.375v-0.375c0-1.068-0.312-1.883-0.938-2.436
			c-0.627-0.551-1.512-0.828-2.653-0.828c-0.719,0-1.373,0.08-1.959,0.236c-0.587,0.156-1.164,0.369-1.729,0.633l-0.537-1.486
			c0.671-0.318,1.354-0.57,2.043-0.762c0.687-0.191,1.477-0.289,2.369-0.289c1.722,0,3.028,0.447,3.921,1.34
			c0.846,0.846,1.27,2.035,1.27,3.568v7.418h-1.786v-1.807c-0.422,0.549-0.989,1.029-1.701,1.443
			C298.412,339.608,297.522,339.817,296.46,339.817z M296.824,338.337c0.562,0,1.083-0.08,1.569-0.234
			c0.482-0.154,0.908-0.373,1.275-0.666c0.366-0.285,0.654-0.627,0.864-1.027c0.212-0.396,0.317-0.838,0.317-1.318v-1.125
			c-0.453-0.121-0.968-0.24-1.546-0.35c-0.576-0.105-1.24-0.162-1.986-0.162c-1.125,0-1.994,0.223-2.609,0.666
			c-0.618,0.443-0.925,1.031-0.925,1.764v0.047c0,0.373,0.08,0.715,0.246,1.018c0.162,0.303,0.386,0.559,0.667,0.758
			c0.281,0.201,0.604,0.359,0.97,0.469C296.034,338.284,296.418,338.337,296.824,338.337z"/>
		<path fill="#808184" d="M312.493,339.839c-0.892,0-1.717-0.168-2.476-0.502c-0.761-0.336-1.417-0.793-1.973-1.365
			s-0.989-1.24-1.302-2.004c-0.314-0.766-0.472-1.574-0.472-2.422v-0.045c0-0.861,0.157-1.674,0.472-2.441
			c0.312-0.768,0.746-1.439,1.302-2.02c0.556-0.578,1.212-1.037,1.973-1.371c0.759-0.336,1.584-0.506,2.476-0.506
			c0.58,0,1.104,0.055,1.574,0.166c0.468,0.107,0.901,0.26,1.29,0.455c0.393,0.195,0.75,0.428,1.082,0.693
			c0.329,0.266,0.634,0.547,0.915,0.848l-1.198,1.264c-0.484-0.5-1.015-0.928-1.586-1.291c-0.572-0.357-1.271-0.537-2.101-0.537
			c-0.608,0-1.182,0.121-1.714,0.363c-0.53,0.242-0.994,0.574-1.383,0.998c-0.393,0.422-0.696,0.92-0.918,1.49
			c-0.217,0.57-0.327,1.186-0.327,1.842v0.047c0,0.656,0.112,1.271,0.339,1.844c0.229,0.572,0.542,1.072,0.939,1.504
			c0.399,0.428,0.87,0.764,1.408,1.008c0.542,0.242,1.133,0.365,1.773,0.365c0.783,0,1.476-0.174,2.076-0.52
			c0.604-0.342,1.146-0.771,1.635-1.287l1.147,1.078c-0.61,0.689-1.302,1.254-2.077,1.689
			C314.595,339.62,313.635,339.839,312.493,339.839z"/>
		<path fill="#808184" d="M321.063,322.774h2.064v1.996h-2.064V322.774z M321.18,327.421h1.807v12.137h-1.807V327.421z"/>
		<path fill="#808184" d="M333.318,339.839c-0.908,0-1.745-0.168-2.513-0.502c-0.768-0.336-1.432-0.793-1.996-1.365
			c-0.562-0.572-1-1.234-1.313-1.994c-0.312-0.758-0.471-1.568-0.471-2.432v-0.045c0-0.861,0.159-1.674,0.471-2.441
			c0.313-0.768,0.751-1.439,1.313-2.02c0.564-0.578,1.235-1.037,2.01-1.371c0.775-0.336,1.623-0.506,2.544-0.506
			c0.911,0,1.75,0.17,2.524,0.506c0.777,0.334,1.445,0.789,2.008,1.359c0.564,0.572,1.003,1.236,1.313,1.998
			c0.313,0.76,0.47,1.566,0.47,2.428v0.047c0,0.861-0.158,1.676-0.479,2.441c-0.323,0.766-0.764,1.439-1.327,2.021
			c-0.565,0.576-1.235,1.037-2.02,1.373C335.07,339.671,334.224,339.839,333.318,339.839z M333.363,338.222
			c0.658,0,1.262-0.125,1.81-0.379c0.549-0.248,1.017-0.586,1.406-1.006c0.393-0.422,0.698-0.918,0.918-1.482
			c0.219-0.561,0.329-1.164,0.329-1.809v-0.045c0-0.66-0.114-1.271-0.341-1.842c-0.229-0.57-0.544-1.072-0.952-1.502
			c-0.405-0.432-0.883-0.773-1.431-1.021c-0.547-0.25-1.144-0.375-1.784-0.375c-0.657,0-1.259,0.125-1.808,0.375
			c-0.549,0.248-1.014,0.584-1.399,1.01c-0.383,0.42-0.682,0.92-0.901,1.49c-0.221,0.572-0.329,1.178-0.329,1.818v0.047
			c0,0.656,0.112,1.271,0.341,1.844c0.227,0.572,0.54,1.07,0.938,1.492c0.399,0.42,0.874,0.758,1.423,1.006
			C332.128,338.097,332.723,338.222,333.363,338.222z"/>
		<path fill="#808184" d="M343.53,327.421h1.808v2.113c0.408-0.66,0.938-1.217,1.598-1.68c0.656-0.461,1.509-0.691,2.558-0.691
			c0.736,0,1.388,0.119,1.96,0.352c0.571,0.236,1.058,0.568,1.457,0.998c0.397,0.432,0.703,0.945,0.914,1.535
			c0.212,0.6,0.319,1.254,0.319,1.975v7.535h-1.811v-7.072c0-1.125-0.287-2.016-0.866-2.672c-0.579-0.654-1.41-0.982-2.489-0.982
			c-0.517,0-0.998,0.088-1.445,0.268c-0.444,0.18-0.832,0.438-1.162,0.773c-0.327,0.336-0.583,0.738-0.763,1.207
			c-0.18,0.467-0.27,0.984-0.27,1.547v6.932h-1.808V327.421z"/>
		<path fill="#808184" d="M362.194,339.817c-0.565,0-1.118-0.08-1.667-0.236s-1.032-0.395-1.457-0.715
			c-0.421-0.322-0.763-0.717-1.019-1.186c-0.26-0.469-0.39-1.018-0.39-1.645v-0.047c0-0.658,0.127-1.23,0.376-1.723
			c0.251-0.496,0.608-0.906,1.069-1.234s1.009-0.578,1.644-0.75c0.631-0.174,1.332-0.26,2.103-0.26c0.78,0,1.456,0.047,2.027,0.141
			c0.572,0.094,1.132,0.217,1.681,0.375v-0.375c0-1.068-0.313-1.883-0.938-2.436c-0.628-0.551-1.512-0.828-2.652-0.828
			c-0.722,0-1.374,0.08-1.962,0.236c-0.585,0.156-1.164,0.369-1.727,0.633l-0.539-1.486c0.671-0.318,1.354-0.57,2.043-0.762
			c0.688-0.191,1.479-0.289,2.371-0.289c1.722,0,3.026,0.447,3.919,1.34c0.846,0.846,1.269,2.035,1.269,3.568v7.418h-1.783v-1.807
			c-0.424,0.549-0.989,1.029-1.704,1.443C364.145,339.608,363.257,339.817,362.194,339.817z M362.559,338.337
			c0.561,0,1.084-0.08,1.568-0.234s0.907-0.373,1.274-0.666c0.366-0.285,0.656-0.627,0.866-1.027
			c0.21-0.396,0.315-0.838,0.315-1.318v-1.125c-0.451-0.121-0.968-0.24-1.544-0.35c-0.578-0.105-1.24-0.162-1.988-0.162
			c-1.126,0-1.994,0.223-2.609,0.666c-0.616,0.443-0.925,1.031-0.925,1.764v0.047c0,0.373,0.083,0.715,0.246,1.018
			c0.162,0.303,0.386,0.559,0.665,0.758c0.283,0.201,0.605,0.359,0.972,0.469C361.767,338.284,362.154,338.337,362.559,338.337z"/>
		<path fill="#808184" d="M372.805,322.774h2.065v1.996h-2.065V322.774z M372.922,327.421h1.808v12.137h-1.808V327.421z"/>
		<path fill="#808184" d="M383.534,339.794c-0.875,0-1.76-0.162-2.652-0.48c-0.892-0.322-1.686-0.756-2.372-1.305l0.915-1.291
			c0.659,0.5,1.344,0.885,2.056,1.15c0.713,0.266,1.43,0.398,2.148,0.398c0.736,0,1.337-0.17,1.808-0.516
			c0.468-0.344,0.705-0.816,0.705-1.41v-0.047c0-0.295-0.083-0.555-0.249-0.773c-0.163-0.221-0.388-0.412-0.668-0.578
			c-0.282-0.162-0.606-0.305-0.976-0.432c-0.367-0.125-0.746-0.242-1.136-0.354c-0.47-0.141-0.945-0.291-1.423-0.455
			c-0.477-0.164-0.908-0.371-1.291-0.623c-0.384-0.25-0.696-0.564-0.938-0.939c-0.244-0.377-0.364-0.846-0.364-1.408v-0.047
			c0-0.516,0.099-0.99,0.305-1.42c0.202-0.432,0.49-0.799,0.856-1.104c0.369-0.307,0.808-0.543,1.314-0.707
			c0.508-0.162,1.062-0.246,1.654-0.246c0.752,0,1.511,0.125,2.277,0.365c0.769,0.244,1.464,0.568,2.091,0.975l-0.822,1.361
			c-0.562-0.359-1.152-0.645-1.772-0.857c-0.618-0.211-1.225-0.314-1.818-0.314c-0.72,0-1.291,0.168-1.714,0.504
			s-0.633,0.754-0.633,1.254v0.049c0,0.283,0.085,0.527,0.255,0.74c0.173,0.211,0.404,0.396,0.695,0.553
			c0.287,0.154,0.619,0.295,0.997,0.42c0.374,0.123,0.765,0.25,1.173,0.377c0.471,0.139,0.937,0.295,1.397,0.469
			c0.463,0.172,0.88,0.393,1.256,0.656c0.376,0.268,0.678,0.59,0.904,0.965c0.228,0.375,0.338,0.836,0.338,1.385v0.049
			c0,0.574-0.11,1.09-0.338,1.535c-0.227,0.445-0.533,0.826-0.916,1.137c-0.385,0.314-0.839,0.555-1.361,0.715
			C384.712,339.71,384.143,339.794,383.534,339.794z"/>
	</g>
</g>
</svg>
